<svg xmlns="http://www.w3.org/2000/svg" width="1920" height="1260" viewBox="0 0 1920 1260">
  <defs>
    <style>
      .cls-1 {
        fill-rule: evenodd;
      }
    </style>
  </defs>
  <path id="Color_Fill_1" data-name="Color Fill 1" class="cls-1" d="M2,1L1918,2c0.03,86.6-2,167.011-2,253,0,44.16,7.54,91.227,1,135-7.9,52.91,6.75,110.151-1,162q0.495,118.988,1,238c-24.5,12.7-147.28,15.774-164-6,3.7-12.578,13-27.79,10-46-6.12-37.173-39.41-84.281-89-75-20.41,3.82-41.05,17.985-59,17-2.35-16.209-2.12-42.729,3-56-10.23-.707-11.53-5.844-19-8l-30-4c-68.81-11.5-146.96-6-222-6l-163,2c-41.23,6.283-125.32-6.074-148,16q1.005,46,2,92c4.53,28.988,10.72,59.038,14,85l-3,1c-15.49,8.553-49.538-.934-68-2-28.83-1.665-74.767-5.285-109,0l-89,3c-14.238-2.409-27.807-9.3-39-13l-40,5c-50.986,11.77-116.611,5-176,5-167.86,0-349.173-.041-526,0l3,11-4,2ZM1674,691c80.89,2.872,72.84,79.539,23,113l-97-7v-4q1.995-13,4-26,8.505-9,17-18c10.17-16.389,10.94-35.76,26-47C1654.65,696.29,1664.77,695.582,1674,691Z"/>
</svg>
