<?xml version="1.0" encoding="UTF-8"?>
<svg xmlns="http://www.w3.org/2000/svg" xmlns:xlink="http://www.w3.org/1999/xlink" width="80px" height="80px" viewBox="0 0 80 80" version="1.1">
<g id="surface1">
<path style=" stroke:none;fill-rule:nonzero;fill:rgb(29.019609%,33.725491%,60.000002%);fill-opacity:1;" d="M 54.027344 26.476562 C 53.929688 35.011719 47.070312 41.867188 38.535156 41.972656 C 29.996094 42.070312 23.136719 34.863281 23.039062 26.476562 C 22.976562 21.089844 14.621094 21.085938 14.683594 26.476562 C 14.835938 39.570312 25.441406 50.171875 38.535156 50.324219 C 51.628906 50.476562 62.234375 39.335938 62.382812 26.476562 C 62.445312 21.085938 54.09375 21.089844 54.027344 26.476562 Z M 54.027344 26.476562 "/>
<path style=" stroke:none;fill-rule:nonzero;fill:rgb(76.862746%,37.254903%,62.7451%);fill-opacity:1;" d="M 23.039062 25.402344 C 23.140625 16.867188 29.996094 10.007812 38.535156 9.910156 C 47.070312 9.808594 53.929688 17.015625 54.027344 25.402344 C 54.09375 30.789062 62.445312 30.792969 62.382812 25.402344 C 62.230469 12.308594 51.628906 1.707031 38.535156 1.554688 C 25.441406 1.398438 14.835938 12.539062 14.683594 25.402344 C 14.621094 30.792969 22.976562 30.789062 23.039062 25.402344 Z M 23.039062 25.402344 "/>
<path style=" stroke:none;fill-rule:nonzero;fill:rgb(89.803922%,34.901962%,30.980393%);fill-opacity:1;" d="M 17.367188 75 C 17.417969 69.164062 19.648438 63.707031 23.6875 59.53125 C 27.84375 55.238281 33.539062 52.960938 39.460938 52.910156 C 45.257812 52.855469 50.804688 55.234375 54.929688 59.226562 C 59.226562 63.382812 61.5 69.078125 61.554688 75 C 61.601562 80.382812 69.953125 80.390625 69.90625 75 C 69.761719 58.320312 56.144531 44.695312 39.460938 44.554688 C 22.777344 44.40625 9.15625 58.535156 9.011719 75 C 8.964844 80.390625 17.320312 80.382812 17.367188 75 Z M 17.367188 75 "/>
</g>
</svg>
